<svg width="50" height="50" viewBox="0 0 50 50" fill="none" xmlns="http://www.w3.org/2000/svg">
<path d="M19.3343 14.3069C20.08 14.6227 20.5317 15.26 20.8915 16.177C21.0716 16.636 21.218 17.1372 21.3695 17.6732C21.3837 17.7233 21.3979 17.7739 21.4122 17.8247C21.5478 18.3057 21.6908 18.8128 21.8625 19.2953C22.1905 20.2172 22.7329 20.9746 23.1301 21.5291C23.2426 21.6863 23.3435 21.8272 23.4245 21.9509C23.6315 22.2668 23.6981 22.4417 23.7069 22.5508C23.711 22.6005 23.7148 22.6993 23.5196 22.8945C22.8756 23.5385 21.8424 23.7887 20.5858 23.5374C19.3348 23.2871 17.945 22.5476 16.7451 21.3477C15.5452 20.1478 14.8057 18.7581 14.5555 17.5071C14.3042 16.2505 14.5544 15.2172 15.1984 14.5733C16.0409 13.7307 17.5771 13.5628 19.3343 14.3069Z" stroke="white" stroke-width="1.35697"/>
<path d="M28.8535 35.7491C28.174 35.3087 27.8398 34.6026 27.6447 33.6371C27.547 33.1538 27.4899 32.6347 27.4338 32.0806C27.4285 32.0287 27.4233 31.9765 27.418 31.924C27.368 31.4267 27.3153 30.9025 27.23 30.3975C27.067 29.4326 26.6643 28.5925 26.3695 27.9775C26.2859 27.8032 26.2111 27.6469 26.1527 27.511C26.0038 27.164 25.9686 26.9802 25.9788 26.8711C25.9835 26.8216 25.9968 26.7235 26.223 26.5652C26.969 26.0428 28.03 25.9759 29.2239 26.4416C30.4124 26.9052 31.6526 27.8748 32.6259 29.2649C33.5992 30.6549 34.0862 32.1519 34.1153 33.4274C34.1446 34.7085 33.7188 35.6826 32.9728 36.205C31.9968 36.8884 30.4548 36.7871 28.8535 35.7491Z" stroke="white" stroke-width="1.35697"/>
<path d="M35.661 19.3343C35.3452 20.0799 34.7079 20.5316 33.7909 20.8914C33.3319 21.0715 32.8307 21.2179 32.2947 21.3695C32.2445 21.3836 32.194 21.3979 32.1432 21.4122C31.6622 21.5478 31.1551 21.6907 30.6726 21.8624C29.7507 22.1905 28.9933 22.7329 28.4388 23.13C28.2816 23.2426 28.1407 23.3435 28.017 23.4245C27.7011 23.6315 27.5262 23.698 27.417 23.7069C27.3674 23.7109 27.2685 23.7148 27.0733 23.5196C26.4294 22.8756 26.1792 21.8424 26.4305 20.5858C26.6807 19.3347 27.4202 17.945 28.6201 16.7451C29.82 15.5452 31.2097 14.8057 32.4608 14.5555C33.7174 14.3042 34.7506 14.5544 35.3946 15.1983C36.2371 16.0409 36.4051 17.5771 35.661 19.3343Z" stroke="white" stroke-width="1.35697"/>
<path d="M14.3071 30.0086C14.6228 29.2629 15.2601 28.8112 16.1771 28.4514C16.6361 28.2713 17.1373 28.1249 17.6733 27.9734C17.7235 27.9592 17.774 27.945 17.8248 27.9307C18.3059 27.7951 18.813 27.6522 19.2954 27.4805C20.2174 27.1524 20.9748 26.61 21.5293 26.2128C21.6864 26.1003 21.8273 25.9994 21.951 25.9184C22.2669 25.7114 22.4418 25.6448 22.551 25.636C22.6006 25.632 22.6995 25.6281 22.8947 25.8233C23.5386 26.4673 23.7888 27.5005 23.5375 28.7571C23.2873 30.0082 22.5478 31.3979 21.3479 32.5978C20.148 33.7977 18.7583 34.5372 17.5072 34.7874C16.2506 35.0387 15.2174 34.7885 14.5734 34.1446C13.7309 33.302 13.5629 31.7658 14.3071 30.0086Z" stroke="white" stroke-width="1.35697"/>
</svg>
