<svg width="50" height="50" viewBox="0 0 50 50" fill="none" xmlns="http://www.w3.org/2000/svg">
<path d="M30.1111 17.065C30.4059 16.5425 31.0722 16.3537 31.5636 16.6979C33.2659 17.8902 34.6078 19.539 35.4281 21.4642C36.3909 23.7237 36.5815 26.2377 35.9704 28.6165C35.3592 30.9954 33.9804 33.1062 32.0477 34.6218C30.1149 36.1373 27.7362 36.9731 25.2803 36.9994C22.8243 37.0257 20.4283 36.2411 18.4635 34.7673C16.4988 33.2935 15.0751 31.2127 14.4131 28.8475C13.751 26.4823 13.8877 23.9648 14.8019 21.6852C15.5808 19.7429 16.8871 18.0657 18.5634 16.8372C19.0473 16.4826 19.7175 16.657 20.0234 17.1731C20.3294 17.6892 20.154 18.3506 19.6786 18.7165C18.4098 19.6931 17.4192 20.9955 16.8184 22.4938C16.0821 24.3297 15.9721 26.3571 16.5052 28.2619C17.0383 30.1667 18.1849 31.8424 19.7672 33.0294C21.3495 34.2163 23.2791 34.8481 25.257 34.8269C27.2349 34.8057 29.1505 34.1327 30.707 32.9121C32.2635 31.6916 33.3739 29.9917 33.8661 28.0759C34.3583 26.1601 34.2049 24.1355 33.4295 22.3158C32.7966 20.8308 31.7784 19.5499 30.489 18.6007C30.0058 18.2451 29.8163 17.5875 30.1111 17.065Z" fill="white"/>
<rect x="23.8214" y="12" width="2.67857" height="9.82143" rx="1.33929" fill="white"/>
</svg>
